<svg id="Layer_1" data-name="Layer 1" xmlns="http://www.w3.org/2000/svg" viewBox="0 0 283.49 283.49"><defs><style>.cls-1{fill:#2c3e50;}.cls-2{fill:#0984e3;}.cls-3{fill:#747d8c;}.cls-4{fill:#2980b9;}.cls-5{fill:#ecf0f1;}.cls-6{fill:#48dbfb;}.cls-7{fill:#0abde3;}</style></defs><path class="cls-1" d="M0,141.73A141.73,141.73,0,1,0,141.73,0,141.73,141.73,0,0,0,0,141.73Z" transform="translate(0.03)"/><path class="cls-2" d="M48.57,43.54A135.36,135.36,0,0,0,179.92,271.59h0l-1.8.3-1.8.28-1.8.24-1.79.22-1.8.2-1.79.16-1.79.14-1.79.11-1.79.08-1.79.05-1.78,0h-1.78l-1.77,0-1.78-.06-1.76-.09-1.77-.11-1.76-.14-1.75-.17-1.75-.2-1.74-.23-1.74-.25-1.73-.29-1.72-.31-1.71-.34-1.71-.36-1.7-.4-1.69-.42-1.68-.44-1.68-.48-1.66-.5-1.65-.53L124,267.5l-1.63-.58-1.62-.61-1.61-.63-1.6-.65-1.58-.69-1.58-.7-1.56-.73-1.54-.76-1.54-.78-1.52-.81-1.5-.82-1.49-.86-1.48-.87-1.46-.9-1.44-.92-1.43-.95-1.41-1-1.39-1-1.38-1-1.36-1-1.34-1.05-1.32-1.07-1.3-1.08-1.28-1.11-1.26-1.12-1.25-1.14-1.22-1.16-1.2-1.17-1.19-1.2L81.38,240l-1.14-1.22-1.12-1.24L78,236.24,77,235l-1-1.28-1-1.29-1-1.31-1-1.31-1-1.33L71,227.12l-.91-1.35-.89-1.36-.87-1.36-.84-1.38-.81-1.39-.79-1.4-.76-1.4-.74-1.41-.71-1.42L63,213.22l-.66-1.43-.63-1.44-.61-1.45-.59-1.45L59.92,206l-.53-1.46-.51-1.47-.49-1.48-.46-1.48-.43-1.48-.41-1.49-.39-1.49-.36-1.49-.34-1.5-.31-1.49-.29-1.5-.27-1.51-.24-1.5-.21-1.51-.2-1.5-.17-1.51-.14-1.51L54,179.11l-.1-1.5-.07-1.51-.06-1.51,0-1.5v-3l0-1.5.05-1.5.06-1.5.09-1.49.1-1.49.25-3,.32-3,.38-2.95.43-2.93.48-2.91.53-2.89.57-2.87.61-2.84.64-2.82.67-2.79.69-2.76.7-2.72.71-2.69.7-2.65.7-2.6.68-2.55.66-2.51.63-2.45.3-1.2.3-1.19.28-1.17L65.6,108l.26-1.14.24-1.12.23-1.11.22-1.09.2-1.07.19-1,.18-1,.16-1,.15-1,.14-1,.12-1,.11-.94.1-.92.08-.9.07-.88,0-.86,0-.84,0-.82V88l0-.74,0-.7,0-.69L68,85.16l-.07-.65-.08-.62-.08-.61-.1-.59-.1-.57-.11-.55L67.34,81l-.12-.51L67.09,80,67,79.56l-.14-.46-.15-.44-.15-.42-.31-.81-.33-.77-.35-.72-.37-.71-.4-.7-.43-.7-.47-.72-.5-.74-.54-.79-.58-.83-.62-.88L61,68.94l-.68-1-.71-1-.72-1.08-.74-1.13-.75-1.18L56.6,62.3,55.84,61l-.75-1.32-.74-1.35L53.62,57l-.71-1.41-.68-1.45-.65-1.46L51,51.16l-.57-1.5-.54-1.52-.48-1.53-.43-1.53Z" transform="translate(0.03)"/><path class="cls-3" d="M91.29,9.28h0l-.07,2.09,0,2.07,0,2.05.08,2,.13,2,.18,2,.24,2,.28,2,.34,1.94.38,1.92.44,1.9.49,1.89L94.32,35l.6,1.85.64,1.82.7,1.81L97,42.25l.8,1.77.86,1.75.9,1.73,1,1.72,1,1.69,1.06,1.68,1.12,1.66,1.16,1.63,1.22,1.63,1.27,1.6,1.32,1.58,1.38,1.57,1.42,1.54L113,65.33l1.53,1.51,1.57,1.5,1.63,1.48,1.67,1.46,1.72,1.44,1.77,1.43,1.81,1.41L126.53,77l1.91,1.38,1.95,1.36,2,1.35,2,1.34,2.08,1.32,2.13,1.3,2.17,1.29,2.2,1.28,2.25,1.27,2.28,1.25,2.32,1.24,2.35,1.23,2.39,1.22L157,95l2.45,1.2L162,97.38l2.5,1.18L167,99.73l2.56,1.16,2.58,1.16,2.59,1.15,5.25,2.28,5.3,2.25h0l1.36.87,1.32.89,1.28.9,1.24.93,1.2,1,1.15,1,1.12,1,1.08,1,1,1,1,1.06,1,1.07.91,1.09.88,1.12.83,1.14.8,1.16.75,1.18.71,1.2.68,1.22.63,1.25.6,1.26.55,1.29.52,1.32.48,1.33.44,1.35.4,1.38.36,1.4.33,1.43.3,1.44.26,1.47.24,1.49.2,1.52.18,1.53.15,1.55.14,1.58.11,1.59.11,1.61.19,3.28.19,3.33.12,1.68.14,1.7.16,1.7.21,1.71.24,1.71.29,1.71.35,1.7.42,1.7.23.85.25.84.26.85.29.83.31.84.32.83.35.82.36.82.39.82.41.81.42.8.45.79.48.79.49.78.51.77.53.76.56.75.57.74.59.72.61.72.63.71.64.69.66.68.68.66.68.65.7.63.71.62.71.6.72.59.73.57.73.54.73.53.72.51.72.49.72.46.71.45.7.42.68.4.67.38.65.35.63.32.61.31.59.27.56.25.54.23.5.19.48.17.44.14.42.12.37.08.35.06.3,0h.27l.24,0,.2-.05.16-.09.12-.11.1-.13,0-.17,0-.19v-.21l0-.24-.06-.27-.09-.29-.12-.32-.13-.33-.16-.36-.17-.38-.18-.41-.19-.42-.2-.44-.21-.46-.41-1-.4-1-.38-1.09-.17-.56-.15-.58-.14-.58-.13-.6-.1-.6-.09-.62-.06-.62,0-.63,0-.64v-.65l0-.65,0-.66.06-.67.08-.67.11-.67.13-.69.14-.68.17-.69.18-.7.2-.7.45-1.41.5-1.43.55-1.45.58-1.45.61-1.47,1.24-3,.6-1.51.59-1.53.55-1.53.51-1.55.46-1.56.39-1.58.18-.79.16-.79.14-.8.12-.8.1-.81.08-.81.06-.81,0-.81,0-.82v-.82l0-.83-.05-.83-.07-.83-.1-.83-.12-.84-.15-.84-.17-.85-.19-.84-.22-.85-.24-.86-.27-.86-.3-.86-.32-.86-.34-.87-.37-.87-.4-.87-.42-.88-.45-.88-.48-.88-.5-.89-.52-.89-.55-.89-.58-.9-.61-.9-.63-.9-.65-.91h0l2.09,1.08,2,1.09,2,1.09,2,1.1,1.92,1.11,1.87,1.12,1.82,1.13,1.77,1.14,1.72,1.15,1.66,1.16,1.61,1.17,1.56,1.18,1.49,1.19,1.44,1.21,1.38,1.22,1.31,1.23,1.26,1.24,1.19,1.25,1.13,1.27,1.06,1.28,1,1.29.94,1.31.87,1.32.8,1.33.74,1.34.67,1.36.61,1.38.54,1.38.47,1.4.21.7.2.71.17.71.16.72.15.72.13.72h0l.06.23.1.23.14.2.17.18.2.14.22.11.23.07.25,0h.24l.24-.06.22-.1.21-.14.18-.16.14-.2.11-.22.07-.24A141.73,141.73,0,1,1,91.29,9.28Zm2.79,68.59h0v1l0,.54L94,80l-.06.57-.09.57-.1.59-.12.6-.14.61-.15.62-.17.63-.18.64-.2.65-.21.66-.47,1.34-.52,1.38L91,90.26l-.61,1.43-.66,1.44-.68,1.46-.7,1.46L86.89,99l-1.51,2.93-1.51,2.91-.75,1.43-.74,1.42-.73,1.41-.72,1.39-.72,1.37-.7,1.36-.69,1.35-.67,1.34-.67,1.32-.65,1.31-.63,1.29-.62,1.28-.6,1.28-.58,1.25-.56,1.25-.54,1.24-.53,1.22-.5,1.23-1,2.43-.9,2.44-.85,2.45-.8,2.49-.39,1.26L68,140.92l-.37,1.3-.37,1.31-.35,1.33-.35,1.36-.35,1.39L65.86,149l-.34,1.44-.34,1.47-.34,1.5L64.5,155l-.34,1.57-.34,1.6-.34,1.64-.34,1.67-.34,1.71-.35,1.75h0l-.08,1.59-.06,1.6,0,1.59v3.19l0,1.59.07,1.59.09,1.59.12,1.58.14,1.59.18,1.58.19,1.58.23,1.57.25,1.58.29,1.57.31,1.56.34,1.57.36,1.56.4,1.55.43,1.55.46,1.55.48,1.54.52,1.53.55,1.53.58,1.53.62,1.51.64,1.52.68,1.5.7,1.5.74,1.49.77,1.49.79,1.47.83,1.46.86,1.46.89,1.44.92,1.44.94,1.42,1,1.41,1,1.39,1,1.39,1.07,1.36,1.09,1.36L84,230.12l1.15,1.32,1.17,1.31,1.2,1.29,1.23,1.27L90,236.57l1.28,1.23,1.3,1.22,1.33,1.19,1.35,1.17,1.38,1.15L98,243.65l1.42,1.1,1.45,1.08,1.46,1,1.48,1,1.5,1,1.53,1,1.54,1,1.56.92,1.58.89,1.59.87,1.61.83,1.63.81,1.65.78,1.66.74,1.68.72,1.69.68,1.7.66,1.72.62,1.73.58,1.74.56,1.75.52,1.77.49,1.78.46,1.79.42,1.79.39,1.81.36,1.82.32,1.83.29,1.83.26,1.85.22,1.85.19,1.86.16,1.86.13,1.87.09,1.88.05,1.89,0H161l1.89-.05,1.9-.07,1.9-.12,1.91-.14,1.91-.18,1.91-.21,1.92-.25,1.91-.28,1.92-.32,1.92-.35,1.92-.38,1.92-.42,1.92-.45,1.92-.48,1.92-.52,1.92-.55,1.92-.59,1.92-.61,1.91-.65,1.91-.69,1.91-.71,1.91-.75,1.91-.78,1.9-.81,1.9-.85,1.9-.87,1.89-.91,1.89-.94,1.88-1,1.88-1,1.88-1,1.87-1.07,1.87-1.1,1.86-1.13,1.85-1.16,1.85-1.19,1.85-1.22h0l.1-.08.09-.11.06-.12,0-.12,0-.14v-.13l0-.13-.06-.12-.08-.11-.09-.09-.12-.07-.12-.05-.13,0h-.14l-.13,0-.12.05h0l-1.23.64-1.21.62-1.21.61-1.18.59-1.18.58-1.17.56-1.16.55-1.15.53-2.27,1-2.24,1-2.22.91-2.19.85-2.18.79-2.17.73-2.16.67-2.15.61-2.16.55-2.16.49-2.17.43-2.19.38-2.21.31-2.23.25-2.25.19-1.14.08-1.14.05-1.14,0-1.16,0h-2.32l-1.17,0-1.18,0-1.18-.06-1.19-.08-1.19-.1-1.2-.12-1.21-.13-1.21-.15L170.5,253l-1.23-.18-1.24-.21-1.24-.23-1.24-.24-1.25-.26-1.26-.29-1.26-.3-1.26-.32-1.27-.35-1.26-.37-1.27-.39-1.26-.42L154.2,249l-1.26-.46-1.26-.49-1.25-.51-1.24-.54-1.24-.57-1.23-.59-1.22-.62-1.21-.65-1.2-.68-1.19-.71-1.17-.73-1.16-.77-1.13-.8-1.12-.83-1.11-.85-1.08-.88-1.06-.91-1-.94-1-1-1-1-1-1-.95-1-.91-1.06-.89-1.09-.86-1.11-.84-1.14-.8-1.16L124,225.7l-.74-1.19-.72-1.22-.68-1.23-.65-1.25-.62-1.27-.59-1.27-.56-1.29-.53-1.3-.5-1.31-.48-1.32-.44-1.33-.41-1.33-.39-1.33-.35-1.34-.33-1.34-.3-1.34-.27-1.35-.24-1.34L115,201l-.19-1.34-.16-1.32-.13-1.33-.1-1.31-.08-1.3-.05-1.3,0-1.28v-1.27l0-1.26,0-1.25.07-1.23.08-1.22.11-1.2.13-1.19.15-1.18.16-1.15.18-1.14.2-1.12.22-1.1.23-1.08.25-1.07.26-1,.27-1,.29-1,.3-1,.31-1,.32-.93.32-.92.34-.89.34-.88.34-.86.7-1.67.7-1.61.7-1.56.69-1.52.67-1.48.64-1.48.61-1.48.57-1.49.54-1.52.49-1.56.22-.8.22-.81.2-.83.19-.85.17-.86.16-.88.15-.9.13-.92.12-.93.1-.94.09-1,.07-1,.06-1,0-1,0-1,0-1v-1l0-1,0-1,0-1.06-.14-2.14-.21-2.15-.26-2.15-.32-2.15L126.1,121l-.43-2.11-.48-2.08-.53-2-.28-1-.3-1-.3-1-.32-1-.32-.94-.34-.92-.34-.9-.36-.87-.36-.86-.38-.83-.38-.81-.39-.79-.39-.77-.41-.75-.41-.73-.43-.72-.43-.69-.44-.69-.9-1.32L116.24,97l-1-1.24-1-1.21-1-1.21-1.09-1.2L111,90.89l-1.15-1.2-1.18-1.2-1.21-1.21-1.23-1.23-2.51-2.48-1.25-1.22-1.25-1.21L100,80l-1.21-1.13-.59-.54-.58-.53L97,77.25l-.56-.49h0l-.16-.13-.18-.09-.19-.08-.2,0h-.41l-.2,0-.2.07-.17.1-.17.13-.14.15-.12.16-.09.19-.07.19,0,.2Zm40.7,41.84h0l.12.52.13.54.26,1.12.26,1.18.24,1.22.23,1.24.2,1.26.18,1.26.15,1.26.12,1.25.1,1.25.08,1.24.05,1.24,0,1.23v1.22l0,1.21,0,1.21-.06,1.22-.09,1.24-.12,1.25-.15,1.26-.19,1.29-.22,1.31-.26,1.34-.3,1.36-.35,1.4-.39,1.44-.44,1.47-.24.76-.25.76-.55,1.57-.59,1.6-.63,1.64-.68,1.69-.71,1.72-.74,1.75-.78,1.79-.8,1.82-1.64,3.69-.81,1.86-.79,1.85-.76,1.83-.71,1.81-.34.89-.33.88-.31.87-.29.86-.27.84-.26.83-.24.82-.22.8-.2.78-.18.77-.17.76-.16.74-.13.72-.13.71-.11.69-.09.67-.09.66-.07.65-.06.63,0,.61,0,.59,0,.58v2.13l0,1,0,.92,0,.86.07.81.05.77,0,.73,0,.69v.66l0,.63h0l.25,1,.26,1,.28,1,.3,1,.32,1,.34,1,.35,1,.37,1,.39,1,.41,1,.43,1,.44,1,.46,1,.48.95.5.93.51.93.54.92.55.9.56.9.59.88.6.87.62.85.64.84.65.83.68.81.68.79.71.78.72.76.74.75.75.73.76.71.78.7.79.68.81.66.82.65.83.63.85.62.85.6.87.58.87.57.89.54.89.54.91.51.91.5.92.48.93.46.94.45,1,.43,1.9.81,1.91.75,1.93.7,1.94.63,1.94.58,1.94.52,1.94.47,1.93.42,1.93.37,1.91.32,1.9.27,1.87.23,1.86.19,1.84.14,1.82.09,1.8.06H183l1.77,0,1.75-.07,1.74-.11,1.73-.16,1.71-.19,1.71-.23,1.69-.26,1.68-.31,1.67-.34,1.67-.38,1.67-.41,1.66-.46,1.67-.49,1.68-.53,1.68-.57,1.7-.6,1.71-.65,1.72-.68,1.74-.73,1.77-.76,1.78-.8,1.82-.84,1.84-.88h0l.11-.07.1-.09.08-.11.06-.12,0-.12v-.13l0-.14,0-.12-.06-.12-.09-.11-.09-.08-.12-.07-.12-.05-.13,0h-.14l-.13,0h0l-1.62.51-1.6.46-1.6.43-1.59.4L214,240l-1.59.32-1.59.27-1.59.23-1.61.19-1.62.14-1.62.09-1.64,0h-1.64l-1.64-.06-1.65-.11-1.65-.17-1.65-.23-1.66-.29-1.65-.35-.83-.2-.82-.22-.82-.23-.81-.25-.81-.27-.8-.29-.79-.3-.79-.33-.78-.34-.77-.35-.76-.38-.75-.39-.74-.41-.72-.43-.72-.45-.7-.46-.68-.48-.67-.5-.66-.52-.64-.54-.62-.55-.61-.57-.58-.59-.57-.6-.55-.62-.54-.63-.51-.65-.5-.66-.48-.67-.46-.69-.45-.7-.42-.7-.41-.72-.39-.73-.38-.74-.35-.75-.34-.75-.32-.77-.3-.77-.28-.78-.27-.78-.25-.79-.23-.79-.22-.8-.37-1.61-.31-1.61-.25-1.62-.19-1.63-.14-1.62-.08-1.62,0-1.61,0-1.6.07-1.59.11-1.58.14-1.55.19-1.54.23-1.51.25-1.49.29-1.46.31-1.43.34-1.41.37-1.39.38-1.36.41-1.34.42-1.32.43-1.3.45-1.28.46-1.26.47-1.25.94-2.45.95-2.39.94-2.36.91-2.35.85-2.34.4-1.17.38-1.17.36-1.17.34-1.17.3-1.17.28-1.18.24-1.19.21-1.18.16-1.2.13-1.2.08-1.2,0-1.19,0-1.2-.07-1.2-.12-1.19-.17-1.19-.24-1.18-.29-1.17-.36-1.17-.43-1.15-.23-.57-.26-.58-.27-.56-.29-.57-.31-.56-.33-.56-.34-.55-.36-.55-.39-.55-.4-.54-.41-.54-.44-.54-.45-.52-.47-.53-.49-.52-.51-.51-.52-.51-.54-.5-.56-.5-.57-.49-.59-.49-.61-.48-.62-.47-.64-.46-.66-.46-.67-.45-1.39-.88-1.45-.86-1.48-.82-1.53-.79-1.55-.76L155,125l-1.58-.71-1.59-.67-1.58-.65-1.57-.63-1.54-.59-1.52-.56-1.48-.54-1.43-.51-1.37-.48-.66-.23-.65-.22-.63-.22-.61-.2-.58-.2-.57-.19-.55-.18-.52-.18h0l-.19,0-.18,0H136l-.19,0-.18.06-.17.07-.16.1-.15.12-.13.14-.11.15-.09.16-.06.18-.05.18v.38Zm-85.06-83a139.61,139.61,0,0,0,184,210c.74-.65,1.47-1.3,2.2-2h0l.09-.1.07-.11,0-.12,0-.13v-.14l0-.13,0-.12-.08-.11-.09-.1-.11-.07-.12-.06-.13,0h-.13l-.13,0-.13,0-.11.07h0l-1.9,1.28-1.91,1.26-1.92,1.22-1.92,1.19-1.93,1.16-1.93,1.13L221.61,252l-1.94,1.07-2,1-2,1-2,1-2,.93-2,.9-2,.86-2,.83-2,.8-2,.76-2,.73-2,.7-2,.66-2,.63-2,.59-2,.56-2,.52-2,.49-2,.45-2,.42-2,.38-2,.35-2,.31-2,.27-2,.25-2,.2-2,.17-2,.14-2,.1-2,.06-2,0h-2l-2,0-2-.08-2-.12-2-.15-1.95-.19-1.94-.22-1.93-.27-1.93-.29-1.91-.34-1.91-.37-1.9-.4-1.88-.44-1.88-.48-1.86-.51-1.85-.54-1.84-.58-1.83-.61-1.81-.65-1.8-.68-1.78-.71-1.77-.75-1.75-.77-1.73-.81-1.72-.84-1.7-.87-1.68-.9-1.67-.93-1.64-1-1.63-1-1.6-1-1.58-1.05L100,250.48l-1.54-1.11L97,248.24l-1.49-1.16L94,245.9l-1.45-1.21-1.42-1.23-1.39-1.26-1.37-1.27L87,239.63l-1.31-1.32L84.42,237l-1.27-1.36-1.23-1.38-1.21-1.39-1.18-1.42L78.38,230l-1.12-1.44-1.09-1.46-1.06-1.48-1-1.49-1-1.5-1-1.51-.94-1.53-.9-1.54-.87-1.54-.84-1.56-.8-1.57L67,211.8l-.74-1.58-.7-1.6-.67-1.6-.64-1.6-.61-1.62-.57-1.62-.54-1.62L62,198.92l-.48-1.63-.45-1.65L60.67,194l-.38-1.65-.36-1.65L59.61,189l-.29-1.66-.27-1.67L58.82,184l-.2-1.67-.17-1.67L58.3,179l-.11-1.67-.09-1.67L58.05,174l0-1.67v-1.67L58,169l.05-1.67.07-1.67.1-1.67.12-1.66.14-1.67.17-1.66.18-1.66.2-1.65L59.3,154l.24-1.65.26-1.64.56-3.28.62-3.25.68-3.24.72-3.2.76-3.18.78-3.15.81-3.11.81-3.08.81-3,.8-3,.77-2.92.37-1.44.36-1.42L69,112l.34-1.39.32-1.38.31-1.35.3-1.34.27-1.32.26-1.29.23-1.28.22-1.25.2-1.24L71.64,99l.17-1.18L72,96.64l.13-1.14.1-1.12.09-1.09.07-1.07,0-1,0-1v-2l0-.94-.05-.91-.06-.88-.07-.86-.09-.83L72,83l-.12-.78-.13-.75-.14-.73-.16-.7-.17-.68-.18-.66-.18-.63-.2-.62-.21-.59-.21-.57-.23-.56-.23-.53-.23-.52-.5-1-.52-1L68,71.77l-.59-.93-.62-.93-.66-1-.7-1-.72-1-.38-.54L64,65.86l-.79-1.15-.81-1.21-.83-1.27-.83-1.32-.83-1.37-.83-1.43-.82-1.47-.8-1.52-.77-1.55L56,52l-.7-1.59-.64-1.6L54,47.19l-.53-1.61-.23-.8-.22-.8-.2-.8-.18-.79-.15-.79-.14-.79L52.27,40l-.09-.77-.07-.77,0-.75h0l0-.2,0-.19-.07-.19-.1-.17-.13-.15-.14-.14-.16-.12-.18-.09L51,36.44l-.2,0h-.39l-.2.05-.18.07-.18.1Z" transform="translate(0.03)"/><path class="cls-4" d="M95.46,12.27A137.48,137.48,0,0,1,278.16,158.7h0l-.64-1.17-.68-1.16-.72-1.15-.77-1.13-.8-1.12-.84-1.11-.89-1.09-.92-1.08-1-1.07-1-1.06-1-1-1.08-1-1.11-1-1.14-1-1.18-1-1.22-1-1.24-1-1.28-1-1.32-1-1.34-.94-1.37-.94-1.4-.93-1.44-.92-1.46-.91-1.48-.9-1.52-.9-1.54-.88-1.57-.89-1.59-.87-1.62-.87-1.64-.86-1.66-.86h0l-3-1.51-3.08-1.49-3.14-1.49L227.27,121,224,119.5l-3.28-1.45-3.32-1.44-3.34-1.43-3.37-1.43-3.39-1.42-6.81-2.83-6.82-2.84-6.79-2.84h0l-5.16-2.2-2.56-1.11-2.54-1.11-2.53-1.11-2.5-1.12L169.15,96l-2.45-1.13-2.43-1.14-2.41-1.15-2.37-1.15-2.34-1.17-2.31-1.17L152.56,88l-2.24-1.19-2.2-1.2L146,84.34l-2.13-1.22-2.08-1.23-2.05-1.24-2-1.26-2-1.26-1.93-1.28-1.88-1.29-1.83-1.3L128.29,73l-1.75-1.33-1.7-1.34-1.66-1.35-1.6-1.36L120,66.19l-1.51-1.39L117,63.4,115.63,62l-1.36-1.43L113,59.11l-1.27-1.46-1.22-1.47-1.17-1.49-1.12-1.5-1.07-1.51-1-1.53-1-1.55L104.18,47l-.88-1.57-.84-1.59-.78-1.61-.74-1.62-.7-1.64-.64-1.66L99,35.67,98.45,34l-.5-1.7-.46-1.73-.41-1.74L96.71,27l-.32-1.78-.27-1.79-.22-1.82-.18-1.84L95.58,18l-.09-1.88,0-1.89Zm36.15,5.39a9.92,9.92,0,1,0,19.84,0h0a9.92,9.92,0,0,0-19.84,0Z" transform="translate(0.03)"/><path class="cls-5" d="M135.86,17.66a5.67,5.67,0,0,0,11.34,0h0a5.67,5.67,0,0,0-11.34,0Z" transform="translate(0.03)"/><path class="cls-4" d="M198.82,113.4a29.43,29.43,0,0,1,6.14,7.16h0l.67,1,.64,1.05.61,1.07.59,1.09.55,1.1.53,1.12.49,1.13.47,1.14.44,1.16.41,1.18.38,1.18.36,1.2.33,1.22.31,1.22.28,1.23.26,1.25.24,1.25.21,1.27.2,1.27.17,1.28.15,1.29.14,1.3.22,2.62.17,2.63.15,2.65.15,2.64.17,2.64.23,2.62.13,1.31.16,1.29.18,1.29.2,1.28.24,1.27.26,1.26.31,1.24.33,1.23.38,1.22.43,1.2.47,1.19.51,1.18.56,1.16.61,1.15.65,1.12.7,1.11.75,1.09.8,1.07.84,1.05.89,1,.94,1,1,1,1,.94,1,.91,1.06.87,1.06.83,1.07.79,1.07.74,1,.69,1,.64h0l-.25-.86-.21-.9-.19-.91-.15-.94-.11-1-.07-1,0-1v-1l.06-1,.09-1,.13-1,.17-1,.2-1,.23-1,.26-1,.29-1,.32-1,.33-1,.71-1.92.76-1.91.77-1.88.78-1.86.75-1.84.71-1.83.33-.9.31-.9.28-.9.27-.89.24-.89.22-.88.2-.89.17-.88.14-.88.12-.89.09-.88.06-.88,0-.89v-.89l0-.89-.06-.9-.09-.9-.13-.91-.15-.92-.19-.92-.23-.93-.26-.94-.3-.95-.34-1-.37-1-.42-1-.45-1-.49-1-.53-1-.58-1-.61-1-.65-1-.7-1-.73-1.06a33.37,33.37,0,0,0-6.39-7.81h0l-1.77-.82-1.78-.81L221.38,123l-3.67-1.61-3.71-1.6-3.76-1.59-3.78-1.6Z" transform="translate(0.03)"/><path class="cls-6" d="M124.45,205h0l.35,1.38.39,1.37.42,1.36.46,1.36.49,1.34.53,1.33.56,1.31.6,1.3.63,1.28.67,1.26.7,1.23.73,1.22.76,1.19.8,1.17.83,1.13.87,1.11.89,1.08.93,1,1,1,1,1,1,.95,1.05.92,1.07.89,1.1.86,1.12.83,1.15.79,1.17.77,1.19.73,1.21.7,1.24.67,1.24.64,1.27.61,1.28.58,1.3.55,1.31.51L157,241l1.33.46,1.33.43,1.33.41,1.33.37,1.34.35,1.33.33,1.34.3,1.33.27,1.32.25,1.33.23,1.31.2,1.31.18,1.29.15,1.29.14,1.28.11,1.26.08,1.25.07,1.25.05,1.23,0H183l1.22,0,1.21,0,1.2-.06,1.19-.08,1.19-.1,1.18-.12,1.17-.14,1.17-.15h0l-1.51-.3-1.5-.35-1.5-.4-1.5-.46-1.48-.51-1.47-.56-1.45-.62-1.43-.68-1.4-.74-.69-.39-.68-.4-.67-.42-.66-.44-.65-.45-.64-.46-.63-.48-.62-.5-.6-.51-.59-.52-.58-.54-.56-.55-.56-.56-.53-.57-.53-.59-.51-.59-.49-.61-.49-.62-.92-1.26-.87-1.3-.8-1.33-.75-1.36-.69-1.39-.63-1.41-.57-1.43-.51-1.44-.46-1.45-.4-1.46-.35-1.47-.3-1.47-.26-1.48-.2-1.47-.17-1.47-.12-1.47-.07-1.47,0-1.45v-1.45l0-1.43.06-1.42.1-1.4.13-1.39.15-1.36.18-1.35.21-1.32.23-1.31.26-1.29.27-1.27.29-1.25.31-1.23.33-1.21.34-1.19.35-1.18.36-1.15.38-1.14.38-1.12.39-1.1.39-1.08.4-1.06.8-2.08.8-2,.78-2,.76-1.93.72-1.89.68-1.86.63-1.83.29-.91.28-.9.25-.9.24-.9.22-.89.19-.89.17-.89.15-.87.12-.88.09-.86.07-.86,0-.86,0-.84,0-.85,0-.83-.08-.83-.11-.82-.14-.82-.18-.8-.21-.8-.24-.8-.28-.78-.32-.78-.36-.78-.4-.77-.45-.77-.48-.76-.53-.76-.58-.75-.62-.75-.67-.74-.72-.74-.76-.73-.82-.72-.87-.71-.91-.71-1-.7-1-.68-1-.67-1.1-.66-1.13-.64-1.16-.63-1.19-.61-1.22-.6-1.23-.59-1.25-.56-1.26-.55-1.27-.53-1.28-.52-1.26-.5-1.26-.48-1.24-.46-1.22-.45-1.19-.43-1.16-.41-1.12-.39h0l.22,1.22.19,1.23.18,1.25.15,1.24.13,1.23.1,1.23.09,1.23.06,1.21,0,1.21,0,1.2v1.2l0,1.19,0,1.19-.07,1.21-.09,1.23-.11,1.24-.15,1.25-.17,1.28-.21,1.29-.25,1.32-.28,1.35-.32,1.37-.36,1.4-.41,1.43-.45,1.46-.49,1.49-.52,1.51-.57,1.54-.6,1.57-.63,1.59-.66,1.62-.7,1.64-.72,1.67-.74,1.69-1.51,3.4-.75,1.7-.74,1.69-.71,1.66-.67,1.64-.64,1.6-.3.79-.28.77-.27.76-.26.75-.24.73-.22.72-.22.7-.19.69-.19.68-.17.66-.15.65-.15.64-.13.62-.12.61-.11.59-.09.58-.09.56-.07.55-.06.54-.06.52-.07,1,0,.94,0,.9v.86l0,.82,0,.79,0,.77.11,1.49.09,1.47,0,.75Z" transform="translate(0.03)"/><path class="cls-7" d="M66.68,165.45h0l-.11,2.45,0,2.45v2.44l.07,2.44.14,2.43.2,2.42.27,2.41.33,2.41.19,1.2.21,1.19.22,1.2.25,1.19.26,1.19.27,1.19.3,1.18.31,1.18.34,1.18.35,1.17L70.6,198l.39,1.16.41,1.17.42,1.16.45,1.16.46,1.16.48,1.15.5,1.15.53,1.14.54,1.14.55,1.14.58,1.13.6,1.13.62,1.12.63,1.12.65,1.11.67,1.11.69,1.09.71,1.1.72,1.08.75,1.08.76,1.07.78,1.06.79,1.06.82,1,.83,1,.85,1,.86,1,.89,1,.9,1,.91,1,.94,1,1,1,1,1,1,.95,1,.93,1,.92,1,.9,1,.89,1,.88,1.07.86,1.08.85,1.1.84,1.11.82,1.12.8,1.13.79,1.15.77,1.15.76,1.17.74,1.19.72,1.19.71,1.2.69,1.22.67,1.22.66,1.24.64,1.24.62,1.26.6,1.26.58,1.28.57,1.28.54,1.29.53,1.31.51,1.3.48,1.32.47,1.33.45,1.33.42,1.34.41,1.35.39,1.35.36,1.36.35,1.37.33,1.37.3,1.39.29,1.38.26,1.39.25,1.4.23,1.41.2,1.41.19,1.41.16,1.42.14,1.43.13,1.42.1,1.44.08,1.44.06,1.44,0,1.44,0h1.45l1.46,0,1.45,0,1.46-.06,1.46-.08,1.47-.11,1.47-.12,1.47-.15,1.47-.17,1.47-.18,1.48-.21,1.47-.23,1.48-.25,1.48-.28,1.48-.29,1.49-.31h0l-2,0-2-.08-2-.12-2-.17-2-.22-2.06-.26-2.07-.32-2.08-.37-2.11-.42-2.12-.47-2.12-.53-2.14-.59-2.14-.65-2.14-.72-1.07-.38-1.07-.4-1.07-.42-1.06-.43-1.06-.46-1.06-.47-1.06-.49-1.05-.52-1-.53-1-.55-1-.57-1-.6-1-.61-1-.64-1-.65-1-.68-1-.7-1-.72-1-.73-.94-.76-.93-.78-.91-.79-.9-.82-.88-.83-.87-.85-.84-.88-.83-.88-.82-.91-.79-.92-.77-.94-.76-1-.73-1-.71-1-.69-1-.67-1-.65-1-.63-1-.61-1.05-.58-1.07-.57-1.07-.54-1.09-.53-1.09-.5-1.1-.48-1.11-.46-1.12-.45-1.12-.42-1.13-.4-1.13-.37-1.14-.36-1.14-.34-1.14-.32-1.15-.3-1.14-.27-1.15-.26-1.15-.24-1.14-.21-1.15-.2-1.14-.17-1.14-.16-1.14-.14-1.13-.12-1.13-.1-1.13-.08-1.12-.07-1.11,0-1.11,0-1.1v-2.18l0-1.08,0-1.07.05-1.06.06-1.05.07-1,.1-1,.1-1,.12-1,.13-1,.15-1,.15-1,.17-1,.18-1,.2-.93.2-.92.22-.91.22-.89.48-1.74.5-1.69.54-1.63.55-1.57.57-1.52.58-1.46.59-1.4.58-1.35.58-1.29.56-1.24.54-1.19.52-1.16.5-1.13.47-1.12.44-1.11.42-1.11.39-1.12.36-1.14.33-1.17.3-1.2.27-1.25.24-1.3.21-1.33.17-1.37.14-1.42.11-1.45.07-1.49,0-1.53v-1.56l0-1.59-.09-1.62-.12-1.62-.15-1.64-.2-1.65-.23-1.64-.26-1.64-.29-1.62-.33-1.61-.35-1.59-.39-1.56-.42-1.52-.44-1.49-.47-1.44-.49-1.39-.51-1.34-.53-1.28-.55-1.23-.57-1.17-.58-1.13-.61-1.08-.61-1-.64-1-.66-1-.69-.94-.71-.92-.74-.91-.77-.9-.8-.91-.83-.91-.86-.92-.89-.93-.91-1-1-1-1.93-2-2-2-2-1.94-1-1-1-.94h0L97.37,85,97,86.36l-.44,1.36-.48,1.36-.53,1.38L95,91.84l-.6,1.39-.63,1.39L93.08,96l-.67,1.39L91,100.2,89.63,103l-1.4,2.71-1.39,2.68L85.47,111l-1.34,2.57-.65,1.26-.64,1.25-.63,1.24-.62,1.22-.6,1.21-.59,1.18-.57,1.18-.55,1.15-.53,1.15-.52,1.13-.51,1.12-.48,1.11-.94,2.2-.87,2.19-.83,2.18-.77,2.2-.74,2.22-.7,2.27-.34,1.15-.33,1.17-.33,1.2-.32,1.21L70.75,147l-.32,1.25-.31,1.28-.31,1.3-.31,1.33-.31,1.35-.31,1.39-.31,1.41-.31,1.45L68,159.2l-.32,1.51-.31,1.55L67,163.84Z" transform="translate(0.03)"/></svg>